<svg width="578" height="675" viewBox="0 0 578 675" fill="none" xmlns="http://www.w3.org/2000/svg">
<path d="M203.466 423.743V105.476H107.328V476.031C107.333 484.259 111.107 492.15 117.821 497.969C124.535 503.788 133.639 507.059 143.134 507.063H203.566L203.466 423.743Z" fill="white"/>
<path d="M203.466 66.1915V0H143.134C133.638 0 124.53 3.2695 117.815 9.08926C111.1 14.909 107.328 22.8023 107.328 31.0327V83.5281H203.566L203.466 66.1915Z" fill="#FFC400"/>
<path d="M398.693 4.84851e-06H226V83.3028H338.381V423.743H226V507.063H398.693C408.19 507.063 417.297 503.794 424.012 497.974C430.727 492.154 434.5 484.261 434.5 476.031V31.0327C434.502 26.9568 433.578 22.9204 431.78 19.1543C429.981 15.3882 427.344 11.9663 424.018 9.08418C420.693 6.20207 416.744 3.91631 412.399 2.35758C408.053 0.798854 403.396 -0.00227411 398.693 4.84851e-06V4.84851e-06Z" fill="white"/>
<path d="M20.8049 656.568V587.655H0.000894201V671.495C-0.00976573 671.908 0.0749764 672.319 0.250144 672.704C0.425311 673.088 0.687373 673.439 1.02094 673.734C1.3545 674.03 1.75284 674.265 2.19257 674.425C2.6323 674.585 3.10455 674.668 3.58158 674.668H20.8249L20.8049 656.568Z" fill="white"/>
<path d="M20.804 579.457V565.119H3.58068C2.63103 565.119 1.72027 565.446 1.04876 566.028C0.37725 566.61 0 567.399 0 568.222L0 583.201H20.824L20.804 579.457Z" fill="#FFC400"/>
<path d="M101.7 674.964H87.5975C86.8706 674.965 86.1605 674.775 85.5607 674.419C84.9609 674.063 84.4994 673.558 84.2369 672.971L54.7712 605.878C55.4613 608.48 55.8632 611.133 55.9715 613.801V674.964H41.1086C40.6384 674.964 40.1728 674.884 39.7384 674.728C39.3039 674.572 38.9092 674.344 38.5767 674.056C38.2442 673.767 37.9805 673.425 37.8005 673.049C37.6206 672.672 37.528 672.269 37.528 671.861V568.222C37.528 567.399 37.9052 566.61 38.5767 566.028C39.2482 565.446 40.159 565.119 41.1086 565.119H54.1111L84.4769 632.819C83.772 630.213 83.3633 627.554 83.2567 624.879V568.222C83.2567 567.399 83.6339 566.61 84.3054 566.028C84.9769 565.446 85.8877 565.119 86.8374 565.119H101.7V674.964Z" fill="white"/>
<path d="M179.205 579.647H158.321V674.999H143.058C142.574 675.009 142.093 674.933 141.644 674.777C141.195 674.621 140.787 674.388 140.445 674.091C140.103 673.795 139.834 673.441 139.653 673.052C139.473 672.663 139.386 672.246 139.397 671.827V579.647H118.593V568.223C118.593 567.4 118.97 566.61 119.642 566.028C120.313 565.446 121.224 565.119 122.174 565.119H179.205V579.647Z" fill="white"/>
<path d="M248.802 674.964H199.873C199.402 674.964 198.937 674.884 198.502 674.728C198.068 674.572 197.673 674.344 197.341 674.056C197.008 673.767 196.744 673.425 196.565 673.049C196.385 672.672 196.292 672.269 196.292 671.861V568.222C196.292 567.399 196.669 566.61 197.341 566.028C198.012 565.446 198.923 565.119 199.873 565.119H248.322V579.613H215.216V611.668H243.701V625.902H215.216V660.35H248.802V674.964Z" fill="white"/>
<path d="M328.6 674.964H311.376C310.636 674.966 309.913 674.768 309.308 674.399C308.702 674.029 308.244 673.506 307.996 672.901L287.992 623.977V614.078H306.595V579.231H286.292C285.342 579.231 284.431 579.558 283.76 580.14C283.088 580.722 282.711 581.512 282.711 582.335V674.964H267.348C266.878 674.964 266.412 674.884 265.978 674.728C265.543 674.572 265.149 674.344 264.816 674.056C264.484 673.767 264.22 673.425 264.04 673.049C263.86 672.672 263.767 672.269 263.767 671.861V568.222C263.767 567.399 264.145 566.61 264.816 566.028C265.488 565.446 266.398 565.119 267.348 565.119H314.017C321.638 565.119 325.439 568.5 325.439 575.227V615.101C325.439 619.724 323.632 622.717 320.018 624.081C318.018 624.775 314.017 625.139 307.716 625.139L328.6 674.964Z" fill="white"/>
<path d="M505.889 674.964H489.246L458.9 605.878C459.59 608.48 459.992 611.133 460.101 613.801V674.964H445.238C444.767 674.964 444.302 674.884 443.867 674.728C443.433 674.572 443.038 674.344 442.706 674.056C442.373 673.767 442.11 673.425 441.93 673.049C441.75 672.672 441.657 672.269 441.657 671.861V568.222C441.657 567.399 442.034 566.61 442.706 566.028C443.377 565.446 444.288 565.119 445.238 565.119H458.24L488.606 632.819C487.901 630.213 487.492 627.554 487.386 624.879V565.119H505.849L505.889 674.964Z" fill="white"/>
<path d="M578 674.964H527.535V565.119H577.519V579.613H545.741V611.668H573.117V625.902H545.741V660.35H578V674.964Z" fill="white"/>
<path d="M368.464 656.568V587.655H347.6V671.495C347.6 672.318 347.978 673.107 348.649 673.689C349.321 674.271 350.231 674.598 351.181 674.598H368.444L368.464 656.568Z" fill="white"/>
<path d="M368.424 579.457V565.119H351.181C350.711 565.119 350.245 565.199 349.811 565.355C349.376 565.511 348.982 565.74 348.649 566.028C348.317 566.316 348.053 566.658 347.873 567.035C347.693 567.411 347.6 567.815 347.6 568.222V583.201H368.444L368.424 579.457Z" fill="#FFC400"/>
<path d="M413.373 565.119H376.226V583.167H400.551V656.865H376.226V674.964H413.373C415.496 674.964 417.531 674.234 419.031 672.933C420.532 671.633 421.375 669.869 421.375 668.03V572.054C421.375 570.215 420.532 568.451 419.031 567.15C417.531 565.85 415.496 565.119 413.373 565.119Z" fill="white"/>
</svg>
