{
    "asset" : {
        "generator" : "Khronos glTF Blender I/O v1.5.17",
        "version" : "2.0"
    },
    "scene" : 0,
    "scenes" : [
        {
            "name" : "Scene",
            "nodes" : [
                0,
                1
            ]
        }
    ],
    "nodes" : [
        {
            "mesh" : 0,
            "name" : "Curve.002",
            "rotation" : [
                0.7071068286895752,
                0,
                0,
                0.7071068286895752
            ],
            "scale" : [
                74.59002685546875,
                74.59002685546875,
                74.59002685546875
            ],
            "translation" : [
                -4.9321112632751465,
                0,
                0
            ]
        },
        {
            "mesh" : 1,
            "name" : "Curve.001",
            "rotation" : [
                0.7071068286895752,
                0,
                0,
                0.7071068286895752
            ],
            "scale" : [
                74.59002685546875,
                74.59002685546875,
                74.59002685546875
            ],
            "translation" : [
                -4.9321112632751465,
                0,
                0
            ]
        }
    ],
    "materials" : [
        {
            "doubleSided" : true,
            "name" : "Material.004",
            "pbrMetallicRoughness" : {
                "baseColorFactor" : [
                    0.016807377338409424,
                    0.016807377338409424,
                    0.016807377338409424,
                    1
                ],
                "roughnessFactor" : 0
            }
        },
        {
            "doubleSided" : true,
            "name" : "Material.002",
            "pbrMetallicRoughness" : {
                "baseColorFactor" : [
                    0.9576398134231567,
                    0.9681296348571777,
                    1,
                    1
                ]
            }
        }
    ],
    "meshes" : [
        {
            "name" : "Curve.002",
            "primitives" : [
                {
                    "attributes" : {
                        "POSITION" : 0,
                        "NORMAL" : 1,
                        "TEXCOORD_0" : 2
                    },
                    "indices" : 3,
                    "material" : 0
                }
            ]
        },
        {
            "name" : "Curve.001",
            "primitives" : [
                {
                    "attributes" : {
                        "POSITION" : 4,
                        "NORMAL" : 5,
                        "TEXCOORD_0" : 6
                    },
                    "indices" : 7,
                    "material" : 1
                }
            ]
        }
    ],
    "accessors" : [
        {
            "bufferView" : 0,
            "componentType" : 5126,
            "count" : 1179,
            "max" : [
                0.1162581741809845,
                0.004999999888241291,
                1.12876296043396e-05
            ],
            "min" : [
                0,
                -0.004999999888241291,
                -0.11285606771707535
            ],
            "type" : "VEC3"
        },
        {
            "bufferView" : 1,
            "componentType" : 5126,
            "count" : 1179,
            "type" : "VEC3"
        },
        {
            "bufferView" : 2,
            "componentType" : 5126,
            "count" : 1179,
            "type" : "VEC2"
        },
        {
            "bufferView" : 3,
            "componentType" : 5123,
            "count" : 2268,
            "type" : "SCALAR"
        },
        {
            "bufferView" : 4,
            "componentType" : 5126,
            "count" : 126,
            "max" : [
                0.08789708465337753,
                0.004999999888241291,
                -0.0149238845333457
            ],
            "min" : [
                0,
                -0.004999999888241291,
                -0.11285606771707535
            ],
            "type" : "VEC3"
        },
        {
            "bufferView" : 5,
            "componentType" : 5126,
            "count" : 126,
            "type" : "VEC3"
        },
        {
            "bufferView" : 6,
            "componentType" : 5126,
            "count" : 126,
            "type" : "VEC2"
        },
        {
            "bufferView" : 7,
            "componentType" : 5123,
            "count" : 216,
            "type" : "SCALAR"
        }
    ],
    "bufferViews" : [
        {
            "buffer" : 0,
            "byteLength" : 14148,
            "byteOffset" : 0
        },
        {
            "buffer" : 0,
            "byteLength" : 14148,
            "byteOffset" : 14148
        },
        {
            "buffer" : 0,
            "byteLength" : 9432,
            "byteOffset" : 28296
        },
        {
            "buffer" : 0,
            "byteLength" : 4536,
            "byteOffset" : 37728
        },
        {
            "buffer" : 0,
            "byteLength" : 1512,
            "byteOffset" : 42264
        },
        {
            "buffer" : 0,
            "byteLength" : 1512,
            "byteOffset" : 43776
        },
        {
            "buffer" : 0,
            "byteLength" : 1008,
            "byteOffset" : 45288
        },
        {
            "buffer" : 0,
            "byteLength" : 432,
            "byteOffset" : 46296
        }
    ],
    "buffers" : [
        {
            "byteLength" : 46728,
            "uri" : "data:application/octet-stream;base64,"
        }
    ]
}
